<svg width="165" height="66" viewBox="0 0 165 66" fill="none" xmlns="http://www.w3.org/2000/svg">
<path d="M34.244 55.182C32.528 55.182 30.9507 54.7833 29.512 53.986C28.0907 53.1887 26.9553 52.0793 26.106 50.658C25.274 49.2193 24.858 47.6073 24.858 45.822C24.858 44.0367 25.274 42.4333 26.106 41.012C26.9553 39.5907 28.0907 38.4813 29.512 37.684C30.9507 36.8867 32.528 36.488 34.244 36.488C35.96 36.488 37.5287 36.8867 38.95 37.684C40.3887 38.4813 41.5153 39.5907 42.33 41.012C43.162 42.4333 43.578 44.0367 43.578 45.822C43.578 47.6073 43.162 49.2193 42.33 50.658C41.498 52.0793 40.3713 53.1887 38.95 53.986C37.5287 54.7833 35.96 55.182 34.244 55.182ZM34.244 51.126C35.7 51.126 36.8613 50.6407 37.728 49.67C38.612 48.6993 39.054 47.4167 39.054 45.822C39.054 44.21 38.612 42.9273 37.728 41.974C36.8613 41.0033 35.7 40.518 34.244 40.518C32.7707 40.518 31.592 40.9947 30.708 41.948C29.8413 42.9013 29.408 44.1927 29.408 45.822C29.408 47.434 29.8413 48.7253 30.708 49.696C31.592 50.6493 32.7707 51.126 34.244 51.126ZM45.2975 45.848C45.2975 44.0453 45.6875 42.442 46.4675 41.038C47.2475 39.6167 48.3308 38.516 49.7175 37.736C51.1215 36.9387 52.7075 36.54 54.4755 36.54C56.6421 36.54 58.4968 37.112 60.0395 38.256C61.5821 39.4 62.6135 40.96 63.1335 42.936H58.2455C57.8815 42.1733 57.3615 41.5927 56.6855 41.194C56.0268 40.7953 55.2728 40.596 54.4235 40.596C53.0541 40.596 51.9448 41.0727 51.0955 42.026C50.2461 42.9793 49.8215 44.2533 49.8215 45.848C49.8215 47.4427 50.2461 48.7167 51.0955 49.67C51.9448 50.6233 53.0541 51.1 54.4235 51.1C55.2728 51.1 56.0268 50.9007 56.6855 50.502C57.3615 50.1033 57.8815 49.5227 58.2455 48.76H63.1335C62.6135 50.736 61.5821 52.296 60.0395 53.44C58.4968 54.5667 56.6421 55.13 54.4755 55.13C52.7075 55.13 51.1215 54.74 49.7175 53.96C48.3308 53.1627 47.2475 52.062 46.4675 50.658C45.6875 49.254 45.2975 47.6507 45.2975 45.848ZM76.4381 55L70.3021 46.94V55H65.8561V36.748H70.3021V44.756L76.3861 36.748H81.6121L74.5401 45.692L81.8721 55H76.4381ZM90.589 55.182C89.2544 55.182 88.0584 54.9653 87.001 54.532C85.9437 54.0987 85.0944 53.4573 84.453 52.608C83.829 51.7587 83.4997 50.736 83.465 49.54H88.197C88.2664 50.216 88.5004 50.736 88.899 51.1C89.2977 51.4467 89.8177 51.62 90.459 51.62C91.1177 51.62 91.6377 51.4727 92.019 51.178C92.4004 50.866 92.591 50.4413 92.591 49.904C92.591 49.4533 92.435 49.0807 92.123 48.786C91.8284 48.4913 91.4557 48.2487 91.005 48.058C90.5717 47.8673 89.9477 47.6507 89.133 47.408C87.9544 47.044 86.9924 46.68 86.247 46.316C85.5017 45.952 84.8604 45.4147 84.323 44.704C83.7857 43.9933 83.517 43.066 83.517 41.922C83.517 40.2233 84.1324 38.8973 85.363 37.944C86.5937 36.9733 88.197 36.488 90.173 36.488C92.1837 36.488 93.8044 36.9733 95.035 37.944C96.2657 38.8973 96.9244 40.232 97.011 41.948H92.201C92.1664 41.3587 91.9497 40.8993 91.551 40.57C91.1524 40.2233 90.641 40.05 90.017 40.05C89.4797 40.05 89.0464 40.1973 88.717 40.492C88.3877 40.7693 88.223 41.1767 88.223 41.714C88.223 42.3033 88.5004 42.7627 89.055 43.092C89.6097 43.4213 90.4764 43.7767 91.655 44.158C92.8337 44.5567 93.787 44.938 94.515 45.302C95.2604 45.666 95.9017 46.1947 96.439 46.888C96.9764 47.5813 97.245 48.474 97.245 49.566C97.245 50.606 96.9764 51.5507 96.439 52.4C95.919 53.2493 95.1564 53.9253 94.151 54.428C93.1457 54.9307 91.9584 55.182 90.589 55.182ZM120.651 36.748V55H116.205V44.054L112.123 55H108.535L104.427 44.028V55H99.9811V36.748H105.233L110.355 49.384L115.425 36.748H120.651ZM128.294 36.748V55H123.848V36.748H128.294ZM144.646 36.748V40.31H139.81V55H135.364V40.31H130.528V36.748H144.646ZM162.686 36.748V55H158.24V47.486H151.324V55H146.878V36.748H151.324V43.898H158.24V36.748H162.686Z" fill="white"/>
<path d="M125.292 21.364L120.918 29.824V34H117.84V29.824L113.466 21.364H116.958L119.406 26.656L121.836 21.364H125.292ZM132.508 34.126C131.32 34.126 130.228 33.85 129.232 33.298C128.248 32.746 127.462 31.978 126.874 30.994C126.298 29.998 126.01 28.882 126.01 27.646C126.01 26.41 126.298 25.3 126.874 24.316C127.462 23.332 128.248 22.564 129.232 22.012C130.228 21.46 131.32 21.184 132.508 21.184C133.696 21.184 134.782 21.46 135.766 22.012C136.762 22.564 137.542 23.332 138.106 24.316C138.682 25.3 138.97 26.41 138.97 27.646C138.97 28.882 138.682 29.998 138.106 30.994C137.53 31.978 136.75 32.746 135.766 33.298C134.782 33.85 133.696 34.126 132.508 34.126ZM132.508 31.318C133.516 31.318 134.32 30.982 134.92 30.31C135.532 29.638 135.838 28.75 135.838 27.646C135.838 26.53 135.532 25.642 134.92 24.982C134.32 24.31 133.516 23.974 132.508 23.974C131.488 23.974 130.672 24.304 130.06 24.964C129.46 25.624 129.16 26.518 129.16 27.646C129.16 28.762 129.46 29.656 130.06 30.328C130.672 30.988 131.488 31.318 132.508 31.318ZM143.706 21.364V28.924C143.706 29.68 143.892 30.262 144.264 30.67C144.636 31.078 145.182 31.282 145.902 31.282C146.622 31.282 147.174 31.078 147.558 30.67C147.942 30.262 148.134 29.68 148.134 28.924V21.364H151.212V28.906C151.212 30.034 150.972 30.988 150.492 31.768C150.012 32.548 149.364 33.136 148.548 33.532C147.744 33.928 146.844 34.126 145.848 34.126C144.852 34.126 143.958 33.934 143.166 33.55C142.386 33.154 141.768 32.566 141.312 31.786C140.856 30.994 140.628 30.034 140.628 28.906V21.364H143.706ZM159.818 34L157.19 29.23H156.452V34H153.374V21.364H158.54C159.536 21.364 160.382 21.538 161.078 21.886C161.786 22.234 162.314 22.714 162.662 23.326C163.01 23.926 163.184 24.598 163.184 25.342C163.184 26.182 162.944 26.932 162.464 27.592C161.996 28.252 161.3 28.72 160.376 28.996L163.292 34H159.818ZM156.452 27.052H158.36C158.924 27.052 159.344 26.914 159.62 26.638C159.908 26.362 160.052 25.972 160.052 25.468C160.052 24.988 159.908 24.61 159.62 24.334C159.344 24.058 158.924 23.92 158.36 23.92H156.452V27.052Z" fill="white"/>
<path fill-rule="evenodd" clip-rule="evenodd" d="M16 0C16 1.5913 15.3679 3.11742 14.2426 4.24264C13.1174 5.36786 11.5913 6 10 6C8.4087 6 6.88258 5.36786 5.75736 4.24264C4.63214 3.11742 4 1.5913 4 0L0 1.90735e-06C0 2.65217 1.05357 5.19571 2.92893 7.07107C4.3257 8.46783 6.09311 9.40873 8 9.798V55C8 56.1046 8.89543 57 10 57C11.1046 57 12 56.1046 12 55V54H22C22.5523 54 23 53.5523 23 53C23 52.4477 22.5523 52 22 52H21V50H22C22.5523 50 23 49.5523 23 49C23 48.4477 22.5523 48 22 48H12V9.798C13.9069 9.40873 15.6743 8.46783 17.0711 7.07107C18.9464 5.1957 20 2.65216 20 0H16Z" fill="white"/>
<path d="M87.792 58.718V59.735H85.173V61.346H87.18V62.345H85.173V65H83.913V58.718H87.792ZM92.5375 63.803H90.0355L89.6215 65H88.2985L90.5575 58.709H92.0245L94.2835 65H92.9515L92.5375 63.803ZM92.1955 62.795L91.2865 60.167L90.3775 62.795H92.1955ZM97.2968 65.063C96.8588 65.063 96.4628 64.988 96.1088 64.838C95.7608 64.688 95.4848 64.472 95.2808 64.19C95.0768 63.908 94.9718 63.575 94.9658 63.191H96.3158C96.3338 63.449 96.4238 63.653 96.5858 63.803C96.7538 63.953 96.9818 64.028 97.2698 64.028C97.5638 64.028 97.7948 63.959 97.9628 63.821C98.1308 63.677 98.2148 63.491 98.2148 63.263C98.2148 63.077 98.1578 62.924 98.0438 62.804C97.9298 62.684 97.7858 62.591 97.6118 62.525C97.4438 62.453 97.2098 62.375 96.9098 62.291C96.5018 62.171 96.1688 62.054 95.9108 61.94C95.6588 61.82 95.4398 61.643 95.2538 61.409C95.0738 61.169 94.9838 60.851 94.9838 60.455C94.9838 60.083 95.0768 59.759 95.2628 59.483C95.4488 59.207 95.7098 58.997 96.0458 58.853C96.3818 58.703 96.7658 58.628 97.1978 58.628C97.8458 58.628 98.3708 58.787 98.7728 59.105C99.1808 59.417 99.4058 59.855 99.4478 60.419H98.0618C98.0498 60.203 97.9568 60.026 97.7828 59.888C97.6148 59.744 97.3898 59.672 97.1078 59.672C96.8618 59.672 96.6638 59.735 96.5138 59.861C96.3698 59.987 96.2978 60.17 96.2978 60.41C96.2978 60.578 96.3518 60.719 96.4598 60.833C96.5738 60.941 96.7118 61.031 96.8738 61.103C97.0418 61.169 97.2758 61.247 97.5758 61.337C97.9838 61.457 98.3168 61.577 98.5748 61.697C98.8328 61.817 99.0548 61.997 99.2408 62.237C99.4268 62.477 99.5198 62.792 99.5198 63.182C99.5198 63.518 99.4328 63.83 99.2588 64.118C99.0848 64.406 98.8298 64.637 98.4938 64.811C98.1578 64.979 97.7588 65.063 97.2968 65.063ZM104.887 58.718V59.735H103.213V65H101.953V59.735H100.279V58.718H104.887ZM111.803 63.803H109.301L108.887 65H107.564L109.823 58.709H111.29L113.549 65H112.217L111.803 63.803ZM111.461 62.795L110.552 60.167L109.643 62.795H111.461ZM119.766 65H118.506L115.653 60.689V65H114.393V58.709H115.653L118.506 63.029V58.709H119.766V65ZM123.208 58.718C123.868 58.718 124.447 58.847 124.945 59.105C125.449 59.363 125.836 59.732 126.106 60.212C126.382 60.686 126.52 61.238 126.52 61.868C126.52 62.498 126.382 63.05 126.106 63.524C125.836 63.992 125.449 64.355 124.945 64.613C124.447 64.871 123.868 65 123.208 65H121.012V58.718H123.208ZM123.163 63.929C123.823 63.929 124.333 63.749 124.693 63.389C125.053 63.029 125.233 62.522 125.233 61.868C125.233 61.214 125.053 60.704 124.693 60.338C124.333 59.966 123.823 59.78 123.163 59.78H122.272V63.929H123.163ZM131.776 65.063C131.338 65.063 130.942 64.988 130.588 64.838C130.24 64.688 129.964 64.472 129.76 64.19C129.556 63.908 129.451 63.575 129.445 63.191H130.795C130.813 63.449 130.903 63.653 131.065 63.803C131.233 63.953 131.461 64.028 131.749 64.028C132.043 64.028 132.274 63.959 132.442 63.821C132.61 63.677 132.694 63.491 132.694 63.263C132.694 63.077 132.637 62.924 132.523 62.804C132.409 62.684 132.265 62.591 132.091 62.525C131.923 62.453 131.689 62.375 131.389 62.291C130.981 62.171 130.648 62.054 130.39 61.94C130.138 61.82 129.919 61.643 129.733 61.409C129.553 61.169 129.463 60.851 129.463 60.455C129.463 60.083 129.556 59.759 129.742 59.483C129.928 59.207 130.189 58.997 130.525 58.853C130.861 58.703 131.245 58.628 131.677 58.628C132.325 58.628 132.85 58.787 133.252 59.105C133.66 59.417 133.885 59.855 133.927 60.419H132.541C132.529 60.203 132.436 60.026 132.262 59.888C132.094 59.744 131.869 59.672 131.587 59.672C131.341 59.672 131.143 59.735 130.993 59.861C130.849 59.987 130.777 60.17 130.777 60.41C130.777 60.578 130.831 60.719 130.939 60.833C131.053 60.941 131.191 61.031 131.353 61.103C131.521 61.169 131.755 61.247 132.055 61.337C132.463 61.457 132.796 61.577 133.054 61.697C133.312 61.817 133.534 61.997 133.72 62.237C133.906 62.477 133.999 62.792 133.999 63.182C133.999 63.518 133.912 63.83 133.738 64.118C133.564 64.406 133.309 64.637 132.973 64.811C132.637 64.979 132.238 65.063 131.776 65.063ZM136.352 59.735V61.31H138.467V62.309H136.352V63.974H138.737V65H135.092V58.709H138.737V59.735H136.352ZM139.576 61.85C139.576 61.232 139.714 60.68 139.99 60.194C140.272 59.702 140.653 59.321 141.133 59.051C141.619 58.775 142.162 58.637 142.762 58.637C143.464 58.637 144.079 58.817 144.607 59.177C145.135 59.537 145.504 60.035 145.714 60.671H144.265C144.121 60.371 143.917 60.146 143.653 59.996C143.395 59.846 143.095 59.771 142.753 59.771C142.387 59.771 142.06 59.858 141.772 60.032C141.49 60.2 141.268 60.44 141.106 60.752C140.95 61.064 140.872 61.43 140.872 61.85C140.872 62.264 140.95 62.63 141.106 62.948C141.268 63.26 141.49 63.503 141.772 63.677C142.06 63.845 142.387 63.929 142.753 63.929C143.095 63.929 143.395 63.854 143.653 63.704C143.917 63.548 144.121 63.32 144.265 63.02H145.714C145.504 63.662 145.135 64.163 144.607 64.523C144.085 64.877 143.47 65.054 142.762 65.054C142.162 65.054 141.619 64.919 141.133 64.649C140.653 64.373 140.272 63.992 139.99 63.506C139.714 63.02 139.576 62.468 139.576 61.85ZM148.032 58.718V62.606C148.032 63.032 148.143 63.359 148.365 63.587C148.587 63.809 148.899 63.92 149.301 63.92C149.709 63.92 150.024 63.809 150.246 63.587C150.468 63.359 150.579 63.032 150.579 62.606V58.718H151.848V62.597C151.848 63.131 151.731 63.584 151.497 63.956C151.269 64.322 150.96 64.598 150.57 64.784C150.186 64.97 149.757 65.063 149.283 65.063C148.815 65.063 148.389 64.97 148.005 64.784C147.627 64.598 147.327 64.322 147.105 63.956C146.883 63.584 146.772 63.131 146.772 62.597V58.718H148.032ZM156.305 65L154.919 62.552H154.325V65H153.065V58.718H155.423C155.909 58.718 156.323 58.805 156.665 58.979C157.007 59.147 157.262 59.378 157.43 59.672C157.604 59.96 157.691 60.284 157.691 60.644C157.691 61.058 157.571 61.433 157.331 61.769C157.091 62.099 156.734 62.327 156.26 62.453L157.763 65H156.305ZM154.325 61.607H155.378C155.72 61.607 155.975 61.526 156.143 61.364C156.311 61.196 156.395 60.965 156.395 60.671C156.395 60.383 156.311 60.161 156.143 60.005C155.975 59.843 155.72 59.762 155.378 59.762H154.325V61.607ZM160.091 59.735V61.31H162.206V62.309H160.091V63.974H162.476V65H158.831V58.709H162.476V59.735H160.091Z" fill="white"/>
</svg>
